<?xml version="1.0" standalone="no"?>
<!DOCTYPE svg PUBLIC "-//W3C//DTD SVG 20010904//EN"
 "http://www.w3.org/TR/2001/REC-SVG-20010904/DTD/svg10.dtd">
<svg version="1.0" xmlns="http://www.w3.org/2000/svg"
 width="300.000000pt" height="300.000000pt" viewBox="0 0 300.000000 300.000000"
 preserveAspectRatio="xMidYMid meet">
<metadata>
Created by potrace 1.11, written by Peter Selinger 2001-2013
</metadata>
<g transform="translate(0.000000,300.000000) scale(0.100000,-0.100000)"
fill="#000000" stroke="none">
<path d="M0 1500 l0 -1500 1500 0 1500 0 0 1500 0 1500 -1500 0 -1500 0 0
-1500z m1889 1241 c36 -66 30 -172 -15 -285 -13 -34 -99 -195 -189 -356 l-165
-294 30 -19 c34 -22 70 -75 70 -106 0 -20 -5 -21 -90 -21 l-90 0 -88 -177
c-48 -98 -111 -229 -139 -291 -47 -102 -54 -112 -71 -103 -28 15 -52 83 -52
144 0 74 23 153 81 285 28 63 49 116 47 118 -2 2 -98 -8 -214 -22 -115 -14
-229 -28 -253 -31 l-43 -5 -56 -116 c-30 -64 -85 -182 -122 -262 -73 -161 -87
-173 -124 -110 -17 28 -21 51 -20 115 1 90 25 172 93 319 l40 87 -45 44 c-33
31 -45 49 -42 67 3 22 6 23 74 20 l72 -4 115 229 c137 273 266 511 352 648 51
80 68 100 87 100 39 0 60 -55 55 -141 -8 -106 -54 -214 -225 -528 -84 -154
-151 -283 -150 -286 2 -4 62 3 133 16 72 13 184 31 251 40 l120 18 74 140
c186 357 363 665 427 744 37 46 57 52 72 23z m185 -820 c28 -48 25 -154 -8
-248 -13 -40 -86 -183 -161 -319 -74 -136 -134 -248 -132 -250 4 -5 276 215
427 345 74 64 225 205 336 314 111 108 208 197 217 197 42 0 34 -131 -14 -220
-81 -151 -372 -429 -746 -711 l-132 -100 48 -77 c129 -208 172 -311 174 -412
1 -63 -9 -96 -40 -132 -23 -26 -41 -11 -79 64 -77 152 -300 511 -313 503 -7
-4 -140 -280 -240 -497 -25 -55 -45 -88 -55 -88 -9 0 -25 19 -37 42 -27 52
-28 136 -4 228 50 197 459 1023 651 1318 60 92 75 98 108 43z"/>
</g>
</svg>
